<svg xmlns="http://www.w3.org/2000/svg" xmlns:xlink="http://www.w3.org/1999/xlink" width="252.776" height="140.998" viewBox="0 0 252.776 140.998">
  <defs>
    <clipPath id="clip-path">
      <rect id="Rectangle_205" data-name="Rectangle 205" width="252.776" height="140.998" fill="none"/>
    </clipPath>
  </defs>
  <g id="Group_202" data-name="Group 202" transform="translate(0)">
    <g id="Group_201" data-name="Group 201" transform="translate(0)" clip-path="url(#clip-path)">
      <path id="Path_207" data-name="Path 207" d="M161.95,51.072H69.716a8.719,8.719,0,0,0-8.747,9.33l3.788,56.955H166.538l4.155-56.892a8.718,8.718,0,0,0-8.743-9.393" transform="translate(-35.573 -29.811)" fill="#a54bff"/>
      <path id="Path_208" data-name="Path 208" d="M161.95,51.072H69.716a8.719,8.719,0,0,0-8.747,9.33l3.788,56.955H166.538l4.155-56.892A8.718,8.718,0,0,0,161.95,51.072Z" transform="translate(-35.573 -29.811)" fill="none" stroke="#fff" stroke-linecap="round" stroke-linejoin="round" stroke-width="1.582"/>
      <path id="Path_209" data-name="Path 209" d="M16.822,126.591a15.73,15.73,0,0,0-1.652,0A15.228,15.228,0,0,0,.792,141.612a15.052,15.052,0,0,0,9.263,13.867v51.036A3.93,3.93,0,0,0,14,210.424H55.5L42.522,126.591Z" transform="translate(-0.462 -73.878)" fill="#a54bff"/>
      <path id="Path_210" data-name="Path 210" d="M16.822,126.591a15.73,15.73,0,0,0-1.652,0A15.228,15.228,0,0,0,.792,141.612a15.052,15.052,0,0,0,9.263,13.867v51.036A3.93,3.93,0,0,0,14,210.424H55.5L42.522,126.591Z" transform="translate(-0.462 -73.878)" fill="none" stroke="#fff" stroke-linecap="round" stroke-linejoin="round" stroke-width="1.582"/>
      <path id="Path_211" data-name="Path 211" d="M247.676,51.072H137.812a8.719,8.719,0,0,0-8.747,9.33l3.788,56.955H252.264l4.155-56.892a8.718,8.718,0,0,0-8.743-9.393" transform="translate(-75.32 -29.811)" fill="#ff6dce"/>
      <path id="Path_212" data-name="Path 212" d="M247.676,51.072H137.812a8.719,8.719,0,0,0-8.747,9.33l3.788,56.955H252.264l4.155-56.892A8.718,8.718,0,0,0,247.676,51.072Z" transform="translate(-75.32 -29.811)" fill="none" stroke="#fff" stroke-linecap="round" stroke-linejoin="round" stroke-width="1.582"/>
      <path id="Path_213" data-name="Path 213" d="M96.918,141.621a15.213,15.213,0,1,0-21.161,13.857v51.036a3.93,3.93,0,0,0,3.95,3.909H96.918V142.87h-.064c.034-.413.064-.828.064-1.249" transform="translate(-38.812 -73.878)" fill="#ff6dce"/>
      <path id="Path_214" data-name="Path 214" d="M96.918,141.621a15.213,15.213,0,1,0-21.161,13.857v51.036a3.93,3.93,0,0,0,3.95,3.909H96.918V142.87h-.064C96.888,142.457,96.918,142.043,96.918,141.621Z" transform="translate(-38.812 -73.878)" fill="none" stroke="#fff" stroke-linecap="round" stroke-linejoin="round" stroke-width="1.582"/>
      <rect id="Rectangle_193" data-name="Rectangle 193" width="9.435" height="4.123" transform="translate(44.193 136.546)" fill="#626364"/>
      <rect id="Rectangle_194" data-name="Rectangle 194" width="9.435" height="4.123" transform="translate(44.193 136.546)" fill="none" stroke="#fff" stroke-linecap="round" stroke-linejoin="round" stroke-width="1.582"/>
      <rect id="Rectangle_195" data-name="Rectangle 195" width="9.435" height="4.123" transform="translate(19.546 136.546)" fill="#626364"/>
      <rect id="Rectangle_196" data-name="Rectangle 196" width="9.435" height="4.123" transform="translate(19.546 136.546)" fill="none" stroke="#fff" stroke-linecap="round" stroke-linejoin="round" stroke-width="1.582"/>
      <path id="Path_215" data-name="Path 215" d="M425.037,141.621A15.213,15.213,0,1,1,446.2,155.478v49.657a5.316,5.316,0,0,1-5.344,5.288H425.037V142.87h.064c-.034-.413-.064-.828-.064-1.249" transform="translate(-248.094 -73.878)" fill="#ff6dce"/>
      <path id="Path_216" data-name="Path 216" d="M425.037,141.621A15.213,15.213,0,1,1,446.2,155.478v49.657a5.316,5.316,0,0,1-5.344,5.288H425.037V142.87h.064C425.067,142.457,425.037,142.043,425.037,141.621Z" transform="translate(-248.094 -73.878)" fill="none" stroke="#fff" stroke-linecap="round" stroke-linejoin="round" stroke-width="1.582"/>
      <rect id="Rectangle_197" data-name="Rectangle 197" width="9.435" height="4.123" transform="translate(182.721 136.546)" fill="#626364"/>
      <rect id="Rectangle_198" data-name="Rectangle 198" width="9.435" height="4.123" transform="translate(182.721 136.546)" fill="none" stroke="#fff" stroke-linecap="round" stroke-linejoin="round" stroke-width="1.582"/>
      <rect id="Rectangle_199" data-name="Rectangle 199" width="9.435" height="4.123" transform="translate(145.69 136.546)" fill="#626364"/>
      <rect id="Rectangle_200" data-name="Rectangle 200" width="9.435" height="4.123" transform="translate(145.69 136.546)" fill="none" stroke="#fff" stroke-linecap="round" stroke-linejoin="round" stroke-width="1.582"/>
      <rect id="Rectangle_201" data-name="Rectangle 201" width="118.838" height="32.349" transform="translate(58.106 104.196)" fill="#ff6dce"/>
      <rect id="Rectangle_202" data-name="Rectangle 202" width="118.838" height="32.349" transform="translate(58.106 104.196)" fill="none" stroke="#fff" stroke-linecap="round" stroke-linejoin="round" stroke-width="1.582"/>
      <rect id="Rectangle_203" data-name="Rectangle 203" width="118.838" height="16.65" transform="translate(58.106 87.546)" fill="#ff6dce"/>
      <rect id="Rectangle_204" data-name="Rectangle 204" width="118.838" height="16.65" transform="translate(58.106 87.546)" fill="none" stroke="#fff" stroke-linecap="round" stroke-linejoin="round" stroke-width="1.582"/>
      <path id="Path_217" data-name="Path 217" d="M450.179,143.57s.293,7.934-5.867,8.611c0,0,6.945,1.451,7.188,8.031,0,0-.442-8.515,5.425-8.321,0,0-7.627-.774-6.747-8.321" transform="translate(-259.345 -83.802)" fill="#a54bff"/>
      <path id="Path_218" data-name="Path 218" d="M93.752,143.57s.293,7.934-5.867,8.611c0,0,6.945,1.451,7.188,8.031,0,0-.442-8.515,5.425-8.321,0,0-7.627-.774-6.746-8.321" transform="translate(-51.298 -83.802)" fill="#a54bff"/>
      <path id="Path_219" data-name="Path 219" d="M187.457,93.284s.415,11.235-8.308,12.194c0,0,9.836,2.055,10.179,11.372,0,0-.626-12.057,7.682-11.783,0,0-10.8-1.1-9.554-11.783" transform="translate(-104.569 -54.45)" fill="#a54bff"/>
      <path id="Path_220" data-name="Path 220" d="M350.293,93.284s.415,11.235-8.308,12.194c0,0,9.836,2.055,10.179,11.372,0,0-.626-12.057,7.682-11.783,0,0-10.8-1.1-9.554-11.783" transform="translate(-199.616 -54.45)" fill="#a54bff"/>
      <line id="Line_72" data-name="Line 72" x2="5.403" y2="65.78" transform="translate(112.208 21.493)" fill="none" stroke="#fff" stroke-linecap="round" stroke-linejoin="round" stroke-width="1.582"/>
      <line id="Line_73" data-name="Line 73" y2="16.65" transform="translate(121.734 87.546)" fill="none" stroke="#6e4fba" stroke-linecap="round" stroke-linejoin="round" stroke-width="1.582"/>
      <line id="Line_74" data-name="Line 74" x2="118.838" transform="translate(58.106 95.871)" fill="none" stroke="#6e4fba" stroke-linecap="round" stroke-linejoin="round" stroke-width="1.582"/>
      <line id="Line_75" data-name="Line 75" x2="28.921" transform="translate(24.823 30.591)" fill="none" stroke="#fff" stroke-linecap="round" stroke-linejoin="round" stroke-width="2.373"/>
      <path id="Path_221" data-name="Path 221" d="M139.576,198.97l118.838,4.715H139.576Z" transform="translate(-81.47 -116.139)" fill="#626364"/>
      <path id="Path_222" data-name="Path 222" d="M258.414,250.291l-118.838,3.483v-3.483Z" transform="translate(-81.471 -146.095)" fill="#626364"/>
      <line id="Line_76" data-name="Line 76" y2="16.65" transform="translate(176.943 87.546)" fill="none" stroke="#6e4fba" stroke-linecap="round" stroke-linejoin="round" stroke-width="1.582"/>
      <path id="Path_223" data-name="Path 223" d="M139.576,198.97v51.157" transform="translate(-81.47 -116.139)" fill="none" stroke="#6e4fba" stroke-linecap="round" stroke-linejoin="round" stroke-width="1.582"/>
      <path id="Path_224" data-name="Path 224" d="M50.976,196.014H24.04v7.835Z" transform="translate(-14.032 -114.414)" fill="#626364"/>
      <line id="Line_77" data-name="Line 77" x2="27.351" transform="translate(9.592 81.601)" fill="none" stroke="#fff" stroke-linecap="round" stroke-linejoin="round" stroke-width="2.373"/>
      <path id="Path_225" data-name="Path 225" d="M492.094,43.471l3.394-11.246c-.316-1.46-.622-3.259-.052-3.621.643-.29.384,1.6.98,1.213,1.406-3.056,1.746-2.448,2.315-2.287.394.112,1.615-.861,2.08-.331.424.483.213.9.814,1.17.345.153.853,1.775,1.13,2.029.79.727-.918,1.875-2.542,3.937l-2.189,9.327Z" transform="translate(-287.235 -15.783)" fill="#cecece" fill-rule="evenodd"/>
      <path id="Path_226" data-name="Path 226" d="M430.455,67.79l9.492-20.476c1.508-1.3,6.48,1.841,7.8,2.9-2.226,7.875-3.5,29.121-10.955,35.309C423,96.976,397.68,72.673,402.711,60.888c3.35-7.848,23.885,13.458,27.743,6.9" transform="translate(-234.682 -27.436)" fill="#f4f4f4" fill-rule="evenodd"/>
      <path id="Path_227" data-name="Path 227" d="M558.973,260.529l4.564,7.416,2.687-.17-5.165,5.115-2.623.184-3.382-5.37Z" transform="translate(-323.984 -152.071)" fill="#cecece" fill-rule="evenodd"/>
      <path id="Path_228" data-name="Path 228" d="M563.177,275.272c3.049-.46,4.778-2.19,5.1-5.129l11.211-5.677c1.34-.679,2.559.844,1.756,1.651l-14.711,14.789c-3.486-3.144-1.84-4.156-3.357-5.634" transform="translate(-328.726 -154.27)" fill="#626364" fill-rule="evenodd"/>
      <path id="Path_229" data-name="Path 229" d="M406.61,146.35c15.2.559,32.3-.657,38.549,9.9l24.094,40.713c.91,2.2-6.258,7.362-8.364,6.149L430.912,162.9c-6.342,5.232-17.209-3.615-23.1,2.131-5.422,2.495-11.393-3.6-10.359-6.436,1.975-1.4,7.181-10.841,9.155-12.243" transform="translate(-231.925 -85.424)" fill="#e2f6ff" fill-rule="evenodd"/>
      <path id="Path_230" data-name="Path 230" d="M406.61,146.35c15.2.559,32.3-.657,38.549,9.9l24.094,40.713c.91,2.2-6.258,7.362-8.364,6.149L430.912,162.9c-6.342,5.232-17.209-3.615-23.1,2.131-5.422,2.495-11.393-3.6-10.359-6.436,1.975-1.4,7.181-10.841,9.155-12.243" transform="translate(-231.925 -85.424)" fill="#0d5d75" fill-rule="evenodd"/>
      <path id="Path_231" data-name="Path 231" d="M420.415,301.781l-2.2,8.406,1.995,1.789-7.306-.1-1.961-1.734L412.484,304Z" transform="translate(-239.868 -176.149)" fill="#cecece" fill-rule="evenodd"/>
      <path id="Path_232" data-name="Path 232" d="M408.486,321.854c2.457,1.844,4.917,1.867,7.272.049l11.926,4c1.425.479,1.17,2.4.026,2.4l-20.97-.142c-.149-4.666,1.731-4.2,1.746-6.309" transform="translate(-237.409 -187.866)" fill="#626364" fill-rule="evenodd"/>
      <path id="Path_233" data-name="Path 233" d="M399.06,154.554c27.8,1.548,24.819,3.5,21.365,19.33l-17.662,44.957c-1.184,2.5-8.334,3.47-9.68-.694l8.558-42.924c-8.228-.681-11.081-.368-19.35-.368-5.631-1.991-5.413-15.915-2.666-17.215,2.4.374,17.036-3.46,19.436-3.086" transform="translate(-220.491 -90.198)" fill="#e2f6ff" fill-rule="evenodd"/>
      <path id="Path_234" data-name="Path 234" d="M388.678,96.079c.63,5.218,10.576,13.529,7.945,18.158s-24.335,15.943-28.849,5.09c-5.424-13.041-5.506-43.8,9.478-43.784,1.834-.077,4.318.083,4.947.789,5.844,6.563,5.031,7.757,6.479,19.747" transform="translate(-212.722 -44.084)" fill="#f4f4f4" fill-rule="evenodd"/>
      <path id="Path_235" data-name="Path 235" d="M392.95,55.906s-1.982-.246,1.069-4.776c.472-.7,1.757-.28,1.887-.837.348-1.49-1.029-3.618-.609-5.408,1.051-4.488-11.887-5.4-8.759,4.747.432,1.4,2.635,2.15,2.557,6.148,2.549,4.126,4.544.666,3.854.126" transform="translate(-225.337 -24.326)" fill="#cecece" fill-rule="evenodd"/>
      <path id="Path_236" data-name="Path 236" d="M391.725,40.367c-.981.991-5.387-3.268-5.733,2.021-.026.4.144,1.737-1.741,1.261s-1.2,2.249.275,1.606,1.1,2.96.376,2.766-9.073-3.847-2.409-9.222c3.516-9.424,14.536-3.059,9.232,1.568" transform="translate(-221.764 -19.807)" fill="#626364" fill-rule="evenodd"/>
      <path id="Path_237" data-name="Path 237" d="M497.5,47.25l5.553.223-.521,2.219Z" transform="translate(-290.39 -27.58)" fill="#626364" fill-rule="evenodd"/>
      <path id="Path_238" data-name="Path 238" d="M413.292,138.835l-14.778-2.992s-2.432-.7-2.529-5.64a5.238,5.238,0,0,0,4.763,4.571l9.627-.255Z" transform="translate(-231.136 -75.999)" fill="#626364" fill-rule="evenodd"/>
      <path id="Path_239" data-name="Path 239" d="M405.6,176.183s-13.56-1.083-16.785-2.137l13.224,4.069Z" transform="translate(-226.949 -101.591)" fill="#626364" fill-rule="evenodd"/>
      <path id="Path_240" data-name="Path 240" d="M421.18,112.145l-1.208-10.373,2.844,11.836Z" transform="translate(-245.137 -59.404)" fill="#626364" fill-rule="evenodd"/>
      <line id="Line_78" data-name="Line 78" x2="3.748" y2="1.335" transform="translate(193.273 41.625)" fill="none" stroke="#000" stroke-linecap="round" stroke-linejoin="round" stroke-width="1.582"/>
      <line id="Line_79" data-name="Line 79" x2="8.06" y2="4.061" transform="translate(204.229 22.112)" fill="none" stroke="#eb6992" stroke-linecap="round" stroke-linejoin="round" stroke-width="1.582"/>
      <path id="Path_241" data-name="Path 241" d="M410.572,81.954c-.279-2.246-2.451-4-3.471-4.491" transform="translate(-237.624 -45.215)" fill="none" stroke="#000" stroke-linecap="round" stroke-linejoin="round" stroke-width="1.582"/>
      <path id="Path_242" data-name="Path 242" d="M405.917,189.449l18.225.938s6.824-.43,3.014,7.05L411.768,240.9" transform="translate(-236.933 -110.581)" fill="none" stroke="#fff" stroke-linecap="round" stroke-linejoin="round" stroke-width="0.791"/>
      <path id="Path_243" data-name="Path 243" d="M432.431,204.238l5.3.421-7.23,9.279Z" transform="translate(-251.28 -119.214)" fill="#626364" fill-rule="evenodd"/>
      <path id="Path_244" data-name="Path 244" d="M482.386,187.1l8.938,12.113-8.2-15.394Z" transform="translate(-281.568 -107.296)" fill="#626364" fill-rule="evenodd"/>
      <path id="Path_245" data-name="Path 245" d="M413.748,307.346l-.6,2.372s3.9,1.718,7.26.25a5.632,5.632,0,0,1-6.664-2.622" transform="translate(-241.156 -179.398)" fill="#626364" fill-rule="evenodd"/>
      <path id="Path_246" data-name="Path 246" d="M396.488,62.115l2.785.656s-1.094,1.378-1.89,1.181-.9-1.838-.9-1.838" transform="translate(-231.43 -36.257)" fill="#626364" fill-rule="evenodd"/>
      <line id="Line_80" data-name="Line 80" x2="28.849" y2="41.27" transform="translate(205.602 74.49)" fill="none" stroke="#fff" stroke-linecap="round" stroke-linejoin="round" stroke-width="0.791"/>
      <path id="Path_247" data-name="Path 247" d="M562.789,269.968s-.853,2.638-5.34,4.828l.7,1.115s4.767-3.217,4.638-5.944" transform="translate(-325.382 -157.58)" fill="#626364" fill-rule="evenodd"/>
      <path id="Path_248" data-name="Path 248" d="M514.2,167.062l-10.972-7.018c-2.435-1.746-4.974.516-4.974.516l-.58.888-3.335,5.1-.586.9a3.5,3.5,0,0,0,.865,4.9,3.581,3.581,0,0,0,4.87-1.231l.585-.9,6.043,3.865-.586.9a3.5,3.5,0,0,0,.865,4.9,3.581,3.581,0,0,0,4.87-1.231l.586-.9,3.335-5.1.58-.888a4.086,4.086,0,0,0-1.566-4.7" transform="translate(-287.834 -93.031)" fill="#626364"/>
      <path id="Path_249" data-name="Path 249" d="M509.883,159.98c.41.241,15.8,10.3,15.8,10.3" transform="translate(-297.618 -93.38)" fill="none" stroke="#fff" stroke-linecap="round" stroke-linejoin="round" stroke-width="0.791"/>
      <path id="Path_250" data-name="Path 250" d="M533.585,187.076a2.532,2.532,0,1,1-2.532-2.506,2.519,2.519,0,0,1,2.532,2.506" transform="translate(-308.497 -107.733)" fill="#f4f4f4"/>
      <path id="Path_251" data-name="Path 251" d="M508.865,171.285a2.532,2.532,0,1,1-2.532-2.506,2.519,2.519,0,0,1,2.532,2.506" transform="translate(-294.068 -98.516)" fill="#f4f4f4"/>
      <path id="Path_252" data-name="Path 252" d="M474.418,163.822l10.764,1.928c1.32-.436,4.492-.945,4.886-.465.335.554-3.618.772-3.2,1.273,2.974.962,6.68,2.631,6.589,3.163-.063.368-3.643-1.256-3.725-.988-.135.443,4.687,2.365,4.244,2.84-.4.434-4.623-1.682-4.586-1.341-.472.1,3.771,1.626,3.585,2.2-.107.329-2.654-.674-4.441-1.065-1.768-.386,2.885,2.02,2.677,2.3-.592.791-5.423-2.15-7.5-3.413l-8.863-1.032Z" transform="translate(-276.917 -95.623)" fill="#cecece" fill-rule="evenodd"/>
      <path id="Path_253" data-name="Path 253" d="M378.971,105.128l33.608,6.693c1.79.886.741,6.63.251,8.244-8.207.955-31.742-.44-41.181-2.768-14.782-3.646-12.821-40.167.107-40.039,8.609.085-.378,26.829,7.215,27.87" transform="translate(-210.888 -45.095)" fill="#f4f4f4" fill-rule="evenodd"/>
      <line id="Line_81" data-name="Line 81" x1="0.786" y2="9.193" transform="translate(197.501 66.048)" fill="none" stroke="#eb6992" stroke-linecap="round" stroke-linejoin="round" stroke-width="1.582"/>
      <path id="Path_254" data-name="Path 254" d="M486.078,166.058l.513,5.081h-1.1s.938-4.162.584-5.081" transform="translate(-283.382 -96.928)" fill="#626364" fill-rule="evenodd"/>
      <path id="Path_255" data-name="Path 255" d="M377.428,165.6s-3.7-.418-8.119-6.021" transform="translate(-215.565 -93.149)" fill="none" stroke="#000" stroke-linecap="round" stroke-linejoin="round" stroke-width="1.582"/>
      <line id="Line_82" data-name="Line 82" x1="2.529" y2="1.082" transform="translate(164.849 59.844)" fill="none" stroke="#000" stroke-linecap="round" stroke-linejoin="round" stroke-width="1.582"/>
      <path id="Path_256" data-name="Path 256" d="M389.409,76.263s1.355,3.79,3.992,4.036,2.359-4.036,2.359-4.036" transform="translate(-227.298 -44.515)" fill="none" stroke="#eb6992" stroke-linecap="round" stroke-linejoin="round" stroke-width="1.582"/>
      <path id="Path_257" data-name="Path 257" d="M377.051,102.242a1.233,1.233,0,1,1-1.233-1.22,1.226,1.226,0,0,1,1.233,1.22" transform="translate(-218.645 -58.967)" fill="#ff6dce" fill-rule="evenodd"/>
      <path id="Path_258" data-name="Path 258" d="M402.683,116.13a1.233,1.233,0,1,1-1.233-1.22,1.226,1.226,0,0,1,1.233,1.22" transform="translate(-233.607 -67.073)" fill="#e2f6ff" fill-rule="evenodd"/>
      <path id="Path_259" data-name="Path 259" d="M375.6,140.411a1.233,1.233,0,1,1-1.233-1.22,1.226,1.226,0,0,1,1.233,1.22" transform="translate(-217.8 -81.246)" fill="#e2f6ff" fill-rule="evenodd"/>
      <path id="Path_260" data-name="Path 260" d="M445.276,116.8a1.233,1.233,0,1,1-1.233-1.22,1.226,1.226,0,0,1,1.233,1.22" transform="translate(-258.468 -67.467)" fill="#ff6dce" fill-rule="evenodd"/>
      <path id="Path_261" data-name="Path 261" d="M433.269,95.152a1.233,1.233,0,1,1-1.233-1.22,1.226,1.226,0,0,1,1.233,1.22" transform="translate(-251.46 -54.828)" fill="#e2f6ff" fill-rule="evenodd"/>
      <path id="Path_262" data-name="Path 262" d="M405.421,95.152a1.233,1.233,0,1,1-1.233-1.22,1.226,1.226,0,0,1,1.233,1.22" transform="translate(-235.205 -54.828)" fill="#e2f6ff" fill-rule="evenodd"/>
      <path id="Path_263" data-name="Path 263" d="M493.383,66.082a1.233,1.233,0,1,1-1.233-1.22,1.226,1.226,0,0,1,1.233,1.22" transform="translate(-286.548 -37.86)" fill="#e2f6ff" fill-rule="evenodd"/>
      <path id="Path_264" data-name="Path 264" d="M493.383,114.277a1.233,1.233,0,1,1-1.233-1.22,1.226,1.226,0,0,1,1.233,1.22" transform="translate(-286.548 -65.991)" fill="#e2f6ff" fill-rule="evenodd"/>
      <path id="Path_265" data-name="Path 265" d="M472.771,116.8a1.233,1.233,0,1,1-1.233-1.22,1.226,1.226,0,0,1,1.233,1.22" transform="translate(-274.517 -67.467)" fill="#e2f6ff" fill-rule="evenodd"/>
      <path id="Path_266" data-name="Path 266" d="M490.422,86.542a1.233,1.233,0,1,1-1.233-1.22,1.226,1.226,0,0,1,1.233,1.22" transform="translate(-284.82 -49.802)" fill="#ff6dce" fill-rule="evenodd"/>
      <path id="Path_267" data-name="Path 267" d="M468.269,134.834a1.233,1.233,0,1,1-1.233-1.22,1.226,1.226,0,0,1,1.233,1.22" transform="translate(-271.889 -77.99)" fill="#e2f6ff" fill-rule="evenodd"/>
      <path id="Path_268" data-name="Path 268" d="M380.012,182.11a1.233,1.233,0,1,1-1.233-1.22,1.226,1.226,0,0,1,1.233,1.22" transform="translate(-220.374 -105.585)" fill="#e2f6ff" fill-rule="evenodd"/>
      <path id="Path_269" data-name="Path 269" d="M403.129,156.944a1.233,1.233,0,1,1-1.233-1.22,1.226,1.226,0,0,1,1.233,1.22" transform="translate(-233.867 -90.896)" fill="#e2f6ff" fill-rule="evenodd"/>
      <path id="Path_270" data-name="Path 270" d="M433.269,156.944a1.233,1.233,0,1,1-1.233-1.22,1.226,1.226,0,0,1,1.233,1.22" transform="translate(-251.46 -90.896)" fill="#ff6dce" fill-rule="evenodd"/>
      <path id="Path_271" data-name="Path 271" d="M465.308,167.986a1.233,1.233,0,1,1-1.233-1.22,1.226,1.226,0,0,1,1.233,1.22" transform="translate(-270.161 -97.341)" fill="#e2f6ff" fill-rule="evenodd"/>
      <path id="Path_272" data-name="Path 272" d="M426.308,167.986a1.233,1.233,0,1,1-1.233-1.22,1.226,1.226,0,0,1,1.233,1.22" transform="translate(-247.397 -97.341)" fill="#e2f6ff" fill-rule="evenodd"/>
      <path id="Path_273" data-name="Path 273" d="M280.807,294.139l-.457,8.349,2.385,3.868-10.85-.155-2.335-3.459,1.319-7.954Z" transform="translate(-157.336 -171.689)" fill="#f4f4f4" fill-rule="evenodd"/>
      <path id="Path_274" data-name="Path 274" d="M265.98,314.8c3.669,2.714,7.321,2.723,10.8,0l17.751,5.827c2.122.7,1.763,3.559.064,3.559H263.452c-.269-6.927,2.528-6.257,2.528-9.386" transform="translate(-153.766 -183.75)" fill="#a54bff" fill-rule="evenodd"/>
      <path id="Path_275" data-name="Path 275" d="M300.648,144.586l-24.466,57.3c-5.833,1.977-16.969-2.651-16.771-6.822l13.628-50.228c5.364-24.659,31.192-17.4,27.609-.253" transform="translate(-151.416 -75.254)" fill="#60ceff" fill-rule="evenodd"/>
      <line id="Line_83" data-name="Line 83" x1="12.784" y2="34.539" transform="translate(114.966 91.318)" fill="none" stroke="#fff" stroke-linecap="round" stroke-linejoin="round" stroke-width="1.582" stroke-dasharray="9.494 9.494"/>
      <path id="Path_276" data-name="Path 276" d="M271.549,300.562l-.259,1.559s6.335,1.292,10.284.311c0,0-6.546.332-10.025-1.869" transform="translate(-158.352 -175.438)" fill="#626364" fill-rule="evenodd"/>
      <path id="Path_277" data-name="Path 277" d="M342.019,109.711l-12.221-4.57c-2.753-1.2-4.752,1.543-4.752,1.543l-.378.989-2.171,5.686-.381,1a3.509,3.509,0,0,0,1.89,4.609,3.568,3.568,0,0,0,4.5-2.221l.381-1,6.731,2.517-.381,1a3.509,3.509,0,0,0,1.89,4.608,3.568,3.568,0,0,0,4.5-2.22l.381-1,2.171-5.686.378-.989a4.1,4.1,0,0,0-2.533-4.267" transform="translate(-187.869 -61.194)" fill="#626364"/>
      <path id="Path_278" data-name="Path 278" d="M333.377,106.167c.452.15,17.639,6.766,17.639,6.766" transform="translate(-194.592 -61.97)" fill="none" stroke="#fff" stroke-linecap="round" stroke-linejoin="round" stroke-width="0.791"/>
      <path id="Path_279" data-name="Path 279" d="M362.99,126.882a2.506,2.506,0,0,1-1.941,2.978,2.533,2.533,0,0,1-3.01-1.921,2.507,2.507,0,0,1,1.941-2.978,2.533,2.533,0,0,1,3.009,1.921" transform="translate(-208.954 -72.907)" fill="#f4f4f4"/>
      <path id="Path_280" data-name="Path 280" d="M335.46,116.608a2.506,2.506,0,0,1-1.941,2.978,2.533,2.533,0,0,1-3.01-1.921,2.507,2.507,0,0,1,1.941-2.978,2.532,2.532,0,0,1,3.009,1.921" transform="translate(-192.885 -66.91)" fill="#f4f4f4"/>
      <path id="Path_281" data-name="Path 281" d="M192.813,29.391a1.767,1.767,0,0,1-1.119-1.675c.017-.993.835-2.52,2.842-4.774.707-.794,2.239-.056,2.5-.728.688-1.8-.867-4.77.163-6.844.721-1.452-1.853-2.72-3.81-3.411-3.218-1.137-9.167.3-7.92,7.865.3,1.818,3.086,3.636,2.307,8.607-2.124,13.548,5.382,1.045,5.041.96" transform="translate(-108.157 -6.779)" fill="#cecece" fill-rule="evenodd"/>
      <path id="Path_282" data-name="Path 282" d="M192.027,8.72c-1.393.782-5.238-4.241-7.3,1.457-.157.43-.4,1.951-2.313.841s-2.032,2.094-.21,1.848.268,3.594-.47,3.153-9.6-7.468-2.82-11.938C181.447-2.9,189.76,1.391,194.619.51c3.8-.689,3.947,8.848-2.591,8.21" transform="translate(-102.948 0)" fill="#626364" fill-rule="evenodd"/>
      <path id="Path_283" data-name="Path 283" d="M203.015,21.446a2.01,2.01,0,1,0,1.739,2.261A2.027,2.027,0,0,0,203.015,21.446Z" transform="translate(-117.155 -12.507)" fill="none" stroke="#000" stroke-linecap="round" stroke-linejoin="round" stroke-width="1.582"/>
      <path id="Path_284" data-name="Path 284" d="M215.743,23.152a2.01,2.01,0,1,0,1.739,2.261A2.026,2.026,0,0,0,215.743,23.152Z" transform="translate(-124.585 -13.503)" fill="none" stroke="#000" stroke-linecap="round" stroke-linejoin="round" stroke-width="1.582"/>
      <line id="Line_84" data-name="Line 84" x1="1.275" y1="0.171" transform="translate(87.599 11.2)" fill="none" stroke="#000" stroke-linecap="round" stroke-linejoin="round" stroke-width="1.582"/>
      <path id="Path_285" data-name="Path 285" d="M205.895,82l28.972,17.412c1.95,2.786.9,11.062-.213,12.072-8.61,1.9-27.13-9.057-40.325-13.934-5.277-1.95-5.918-6.656-9.786-11.593,2.381,6.179,4.146,12.628,2.248,14.631-3.889,4.1-29.915,6.717-33.776-.965-4.5-8.953-3.431-51.538,14.645-50.7-.016,4.25,4.815,3.528,3.885.562,8.05,1.25,8.807.4,12.832,3.789,9.075,7.653,17.692,27.717,21.518,28.723" transform="translate(-88.007 -28.551)" fill="#e2f6ff" fill-rule="evenodd"/>
      <path id="Path_286" data-name="Path 286" d="M498.271,282.592l10.409,4.338,4.413,1.209-8.025,7.228-4.094-.945-7.471-3.8Z" transform="translate(-288.057 -164.949)" fill="#f4f4f4" fill-rule="evenodd"/>
      <path id="Path_287" data-name="Path 287" d="M511.449,289.588c4.553-.5,7.223-2.966,7.881-7.307l16.98-7.759c2.03-.928,3.746,1.4,2.506,2.554L516.09,298.147c-4.983-4.873-2.479-6.277-4.641-8.56" transform="translate(-298.532 -160.114)" fill="#a54bff" fill-rule="evenodd"/>
      <path id="Path_288" data-name="Path 288" d="M181.129,148.724c25.158-7.725,33.394-16.89,41.959-10.7l82.571,59.687c.445,6.086-6.916,15.561-10.941,14.308l-87.151-49.849-27.585,9.308c-15.91,2.494-27.375-5.431-24.464-21.032,3.564.555,22.046-2.278,25.61-1.723" transform="translate(-90.511 -79.375)" fill="#60ceff" fill-rule="evenodd"/>
      <path id="Path_289" data-name="Path 289" d="M224.829,94.935l-7.8-22,10.725,21.4Z" transform="translate(-126.677 -42.571)" fill="#626364" fill-rule="evenodd"/>
      <path id="Path_290" data-name="Path 290" d="M281.68,112.569l15.564-4.61c1.452-1.456,5.306-4.241,6.152-3.867.819.51-4.267,3.43-3.375,3.816,4.593-.705,10.634-.962,10.875-.2.167.53-5.678.762-5.6,1.17.122.677,7.814.012,7.551.937-.24.843-7.265.85-6.983,1.276-.557.447,6.1-.356,6.242.526.082.507-3.972.873-6.6,1.546-2.6.666,5.192.756,5.106,1.26-.247,1.442-8.642.762-12.249.472l-12.437,4.532Z" transform="translate(-164.416 -60.738)" fill="#cecece" fill-rule="evenodd"/>
      <path id="Path_291" data-name="Path 291" d="M160.782,87.118l40.5-8.416c2.635.747,4.088,9.256,3.838,11.551-6.908,5.795-37.9,13.642-51.532,16.735-21.626,4.907-26.2-51.458-1.544-53.272,10.934-.8-1.534,35.536,8.741,33.4" transform="translate(-79.022 -31.347)" fill="#e2f6ff" fill-rule="evenodd"/>
      <path id="Path_292" data-name="Path 292" d="M163.14,184.454l58.265-15.965,86.489,56.182" transform="translate(-95.225 -98.347)" fill="none" stroke="#fff" stroke-linecap="round" stroke-linejoin="round" stroke-width="1.582" stroke-dasharray="9.494 9.494"/>
      <path id="Path_293" data-name="Path 293" d="M189.526,133.968a6.741,6.741,0,0,0-4.9,4.759" transform="translate(-107.765 -78.197)" fill="none" stroke="#000" stroke-linecap="round" stroke-linejoin="round" stroke-width="1.582"/>
      <path id="Path_294" data-name="Path 294" d="M281.181,194.254s4.474-1.137,7.008-3.3" transform="translate(-164.125 -111.458)" fill="none" stroke="#000" stroke-linecap="round" stroke-linejoin="round" stroke-width="1.582"/>
      <path id="Path_295" data-name="Path 295" d="M191.312,48.944s-.337,2.808,2.233,2.986c0,0,2.246.061,1.652-2.424" transform="translate(-111.66 -28.569)" fill="none" stroke="#000" stroke-linecap="round" stroke-linejoin="round" stroke-width="1.582"/>
      <path id="Path_296" data-name="Path 296" d="M197.007,35.852s-.087,2.382,2.419,1.469" transform="translate(-114.993 -20.927)" fill="none" stroke="#000" stroke-linecap="round" stroke-linejoin="round" stroke-width="1.582"/>
      <path id="Path_297" data-name="Path 297" d="M225.532,118.065l-32.112,6.62-2.124-6.023" transform="translate(-111.66 -68.915)" fill="none" stroke="#000" stroke-linecap="round" stroke-linejoin="round" stroke-width="1.582"/>
      <path id="Path_298" data-name="Path 298" d="M300.4,126.759a24.987,24.987,0,0,0-1.829-7.259l3.713,6.573Z" transform="translate(-174.275 -69.752)" fill="#626364" fill-rule="evenodd"/>
      <path id="Path_299" data-name="Path 299" d="M198.36,159.584l-42.066,16.361a17.843,17.843,0,0,1-1.221-9.706,10.585,10.585,0,0,0,9.858,2.552Z" transform="translate(-90.368 -93.149)" fill="#626364" fill-rule="evenodd"/>
      <path id="Path_300" data-name="Path 300" d="M301.029,211.085l-.88,2.06-21.353-7.32,1.86-6.854Z" transform="translate(-162.733 -116.139)" fill="#626364" fill-rule="evenodd"/>
      <path id="Path_301" data-name="Path 301" d="M325.681,148.82l-14.934-10.8s-2.928-2.415-5.5-1.989" transform="translate(-178.171 -79.375)" fill="none" stroke="#000" stroke-linecap="round" stroke-linejoin="round" stroke-width="1.582"/>
      <path id="Path_302" data-name="Path 302" d="M511.123,287.51s.224,6.71-2.21,9.783l-1.808-.919s3.937-5.086,4.018-8.864" transform="translate(-295.997 -167.819)" fill="#626364" fill-rule="evenodd"/>
      <path id="Path_303" data-name="Path 303" d="M145.337,159.644s14.071-7.408,17.987,6.988l-5.136,1.384s-7.3,2.006-12.851-8.372" transform="translate(-84.833 -92.072)" fill="#cecece" fill-rule="evenodd"/>
      <line id="Line_85" data-name="Line 85" x2="4.094" y2="13.304" transform="translate(117.264 48.393)" fill="none" stroke="#fff" stroke-linecap="round" stroke-linejoin="round" stroke-width="1.582"/>
      <line id="Line_86" data-name="Line 86" x1="21.676" y2="7.203" transform="translate(95.71 82.796)" fill="none" stroke="#000" stroke-linecap="round" stroke-linejoin="round" stroke-width="1.582"/>
      <path id="Path_304" data-name="Path 304" d="M264.662,326.071a5.015,5.015,0,0,1,5.347,4.693" transform="translate(-154.483 -190.325)" fill="none" stroke="#fff" stroke-linecap="round" stroke-linejoin="round" stroke-width="1.582"/>
      <line id="Line_87" data-name="Line 87" x2="27.408" transform="translate(114.812 138.09)" fill="none" stroke="#fff" stroke-linecap="round" stroke-linejoin="round" stroke-width="1.582"/>
      <path id="Path_305" data-name="Path 305" d="M515.59,321.692a4.446,4.446,0,0,1,5.594,1.354" transform="translate(-300.949 -187.494)" fill="none" stroke="#fff" stroke-linecap="round" stroke-linejoin="round" stroke-width="0.791"/>
      <line id="Line_88" data-name="Line 88" y1="19.424" x2="21.591" transform="translate(218.493 114.73)" fill="none" stroke="#fff" stroke-linecap="round" stroke-linejoin="round" stroke-width="0.791"/>
    </g>
  </g>
</svg>
