<svg xmlns="http://www.w3.org/2000/svg" width="157.273" height="213.894" viewBox="0 0 157.273 213.894">
  <g id="Group_200" data-name="Group 200" transform="translate(0.793 0)">
    <g id="Group_203" data-name="Group 203" transform="translate(0 0)">
      <path id="Path_122" data-name="Path 122" d="M165.579,260.839h-88.3a8.4,8.4,0,0,0-8.374,9.026l3.627,48.349h97.436l3.977-48.288a8.4,8.4,0,0,0-8.37-9.087" transform="translate(-43.41 -163.253)" fill="#a54bff"/>
      <path id="Path_123" data-name="Path 123" d="M165.579,260.839h-88.3a8.4,8.4,0,0,0-8.374,9.026l3.627,48.349h97.436l3.977-48.288A8.4,8.4,0,0,0,165.579,260.839Z" transform="translate(-43.41 -163.253)" fill="none" stroke="#fff" stroke-linecap="round" stroke-linejoin="round" stroke-width="1.585"/>
      <path id="Path_124" data-name="Path 124" d="M29.918,356.672A14.563,14.563,0,1,0,9.66,370.077V419.45a3.781,3.781,0,0,0,3.781,3.782H29.918V357.88h-.061c.033-.4.061-.8.061-1.208" transform="translate(-0.792 -214.118)" fill="#a54bff"/>
      <path id="Path_125" data-name="Path 125" d="M29.918,356.672A14.563,14.563,0,1,0,9.66,370.077V419.45a3.781,3.781,0,0,0,3.781,3.782H29.918V357.88h-.061C29.89,357.48,29.918,357.079,29.918,356.672Z" transform="translate(-0.792 -214.118)" fill="none" stroke="#fff" stroke-linecap="round" stroke-linejoin="round" stroke-width="1.585"/>
      <rect id="Rectangle_183" data-name="Rectangle 183" width="9.032" height="3.989" transform="translate(14.563 209.113)" fill="#626364"/>
      <rect id="Rectangle_184" data-name="Rectangle 184" width="9.032" height="3.989" transform="translate(14.563 209.113)" fill="none" stroke="#fff" stroke-linecap="round" stroke-linejoin="round" stroke-width="1.585"/>
      <path id="Path_126" data-name="Path 126" d="M339.081,356.672a14.563,14.563,0,1,1,20.258,13.406v48.039a5.116,5.116,0,0,1-5.116,5.116H339.081V357.88h.061c-.033-.4-.061-.8-.061-1.208" transform="translate(-212.519 -214.118)" fill="#a54bff"/>
      <path id="Path_127" data-name="Path 127" d="M339.081,356.672a14.563,14.563,0,1,1,20.258,13.406v48.039a5.116,5.116,0,0,1-5.116,5.116H339.081V357.88h.061C339.109,357.48,339.081,357.079,339.081,356.672Z" transform="translate(-212.519 -214.118)" fill="none" stroke="#fff" stroke-linecap="round" stroke-linejoin="round" stroke-width="1.585"/>
      <rect id="Rectangle_185" data-name="Rectangle 185" width="9.032" height="3.989" transform="translate(132.093 209.113)" fill="#626364"/>
      <rect id="Rectangle_186" data-name="Rectangle 186" width="9.032" height="3.989" transform="translate(132.093 209.113)" fill="none" stroke="#fff" stroke-linecap="round" stroke-linejoin="round" stroke-width="1.585"/>
      <rect id="Rectangle_187" data-name="Rectangle 187" width="97.436" height="31.295" transform="translate(29.126 177.818)" fill="#a54bff"/>
      <rect id="Rectangle_188" data-name="Rectangle 188" width="97.436" height="31.295" transform="translate(29.126 177.818)" fill="none" stroke="#fff" stroke-linecap="round" stroke-linejoin="round" stroke-width="1.585"/>
      <path id="Path_128" data-name="Path 128" d="M176.079,402.9s-27.183-6.75-48.718-6.75c-23.874,0-48.718,6.75-48.718,6.75v22.858h97.436Z" transform="translate(-49.517 -247.944)" fill="#a54bff"/>
      <path id="Path_129" data-name="Path 129" d="M176.079,402.9s-27.183-6.75-48.718-6.75c-23.874,0-48.718,6.75-48.718,6.75v22.858h97.436Z" transform="translate(-49.517 -247.944)" fill="none" stroke="#fff" stroke-linecap="round" stroke-linejoin="round" stroke-width="1.585"/>
      <path id="Path_130" data-name="Path 130" d="M365.23,360.41s.281,7.676-5.616,8.331c0,0,6.649,1.4,6.881,7.769,0,0-.423-8.237,5.193-8.05,0,0-7.3-.749-6.459-8.05" transform="translate(-225.37 -225.573)" fill="#626364"/>
      <path id="Path_131" data-name="Path 131" d="M29.2,360.41s.281,7.676-5.616,8.331c0,0,6.649,1.4,6.882,7.769,0,0-.423-8.237,5.193-8.05,0,0-7.3-.749-6.458-8.05" transform="translate(-15.054 -225.573)" fill="#626364"/>
      <path id="Path_132" data-name="Path 132" d="M271.551,315.231s.281,7.676-5.616,8.331c0,0,6.649,1.4,6.881,7.769,0,0-.423-8.237,5.193-8.05,0,0-7.3-.749-6.458-8.05" transform="translate(-166.739 -197.296)" fill="#626364"/>
      <path id="Path_133" data-name="Path 133" d="M130.425,313.931s.281,7.676-5.616,8.331c0,0,6.649,1.4,6.881,7.769,0,0-.423-8.237,5.193-8.05,0,0-7.3-.749-6.458-8.05" transform="translate(-78.411 -196.482)" fill="#626364"/>
      <rect id="Rectangle_189" data-name="Rectangle 189" width="12.468" height="4.899" transform="translate(142.944 62.73) rotate(-71.655)" fill="#626364"/>
      <path id="Path_134" data-name="Path 134" d="M396.865,141.833a.827.827,0,1,1,.478-1.067.827.827,0,0,1-.478,1.067" transform="translate(-247.982 -87.768)" fill="#f4f4f4" fill-rule="evenodd"/>
      <path id="Path_135" data-name="Path 135" d="M394.741,149.31a.827.827,0,1,1,.479-1.068.827.827,0,0,1-.479,1.068" transform="translate(-246.653 -92.448)" fill="#f4f4f4" fill-rule="evenodd"/>
      <path id="Path_136" data-name="Path 136" d="M142.422,532.884l.505,5.794,2.061,3.378-9.377-.135-2.018-3.021.24-5.449Z" transform="translate(-83.909 -333.52)" fill="#f4bf2f" fill-rule="evenodd"/>
      <path id="Path_137" data-name="Path 137" d="M129.913,548.961c3.171,2.37,6.327,2.378,9.334,0l8.957,5.089c1.68.954,1.523,3.109.055,3.109H127.728c-.232-6.05,2.185-5.465,2.185-8.2" transform="translate(-80.228 -343.582)" fill="#f4f4f4" fill-rule="evenodd"/>
      <path id="Path_138" data-name="Path 138" d="M256.761,523.525l2.07,8.916,2.061,3.378-9.377-.135-2.018-3.021-.54-6.835Z" transform="translate(-156.112 -327.663)" fill="#f4bf2f" fill-rule="evenodd"/>
      <path id="Path_139" data-name="Path 139" d="M246.719,547.948c3.171,2.37,6.327,2.378,9.334,0l15.341,5.089c1.834.608,1.524,3.109.055,3.109H244.534c-.232-6.05,2.185-5.465,2.185-8.2" transform="translate(-153.334 -342.948)" fill="#f4f4f4" fill-rule="evenodd"/>
      <path id="Path_140" data-name="Path 140" d="M120.173,195.428s-4.189,3.315-7.586,21.1c-5,26.19-10.637,106.589-10.637,106.589,5.982,1,21.71,1.2,28.83-.43l3.738-91.619L151.5,323.315c6.13,1.752,17.607,1.226,23.438-1.8L151.365,201.926Z" transform="translate(-64.104 -122.314)" fill="#f1687b" fill-rule="evenodd"/>
      <path id="Path_141" data-name="Path 141" d="M173.126,224.359l-39.7.879s1.381-6.769,2.1-7.36Z" transform="translate(-83.804 -136.365)" fill="#626364" fill-rule="evenodd"/>
      <path id="Path_142" data-name="Path 142" d="M339.331,87.018l6.608-12.388c1.018-1.878,1.391-5.418,2.4-6.281.862-.737,1.448.023.64,1.969.682.426,1.465-3.315,3.173-4.2,1.009-.521,1.559,3.207,2.421,3.322,1.7.227,1.244,2.117,0,3.464-.867.936-1.417,2.936-3.649,5.306l-4.754,10.421Z" transform="translate(-212.676 -41.353)" fill="#f4bf2f" fill-rule="evenodd"/>
      <path id="Path_143" data-name="Path 143" d="M161.445,12.865c-5.6,1.727-7.178-6.88-14.32-7.414-5.313-.4-3.62-4.163-12.47-5.371S124.516,11.686,134,12.613s10.873-2.975,16.056-.135,11.142,2.061,11.385.387" transform="translate(-80.054 -0.001)" fill="#626364" fill-rule="evenodd"/>
      <path id="Path_144" data-name="Path 144" d="M215.108,32.135a1.691,1.691,0,1,0,1.431,1.916,1.691,1.691,0,0,0-1.431-1.916" transform="translate(-133.717 -20.102)" fill="#f4bf2f" fill-rule="evenodd"/>
      <path id="Path_145" data-name="Path 145" d="M242.439,105.524l23.311-20.24c1.769.278,10.048,6.113,10.368,7.38-3.323,7.085-22.629,30.141-33.679,35.039-18.194,8.064-30.672-45.64-18.381-47.623,9.757-1.575,12.729,32.543,18.381,25.444" transform="translate(-137.451 -50.087)" fill="#5d46a5" fill-rule="evenodd"/>
      <path id="Path_146" data-name="Path 146" d="M123.445,122.076c-.47,6.82,44.7,16.409,46.018,8.237.665-4.133-3.675-18.072-2.483-22.59,2.865-10.862,6.842-21.734,2.149-29.326-.922-1.491-2.381-3.911-3.63-4.56-.694-.361-6.585-2.2-9.988-.479-17.68,8.965-31.318,37.859-32.067,48.717" transform="translate(-77.555 -45.459)" fill="#a54bff" fill-rule="evenodd"/>
      <path id="Path_147" data-name="Path 147" d="M123.445,122.076c-.47,6.82,44.7,16.409,46.018,8.237.665-4.133-3.675-18.072-2.483-22.59,2.865-10.862,6.842-21.734,2.149-29.326-.922-1.491-2.381-3.911-3.63-4.56-.694-.361-6.585-2.2-9.988-.479C137.831,82.324,124.194,111.219,123.445,122.076Z" transform="translate(-77.555 -45.459)" fill="none" stroke="#fff" stroke-linecap="round" stroke-linejoin="round" stroke-width="1.585"/>
      <path id="Path_148" data-name="Path 148" d="M225.174,50.432s-2.072-1.189,1.391-6.066c.535-.754,1.919-.251,2.078-.859.426-1.626-1.182-4.064-.487-5.959.487-1.327-1.842-2.194-3.587-2.617-2.87-.7-7.851,1.091-6.086,7.55.424,1.551,1.439,2.938,1.376,7.331-.04,3.027,5.85,3.136,5.316.62" transform="translate(-136.808 -21.775)" fill="#f4bf2f" fill-rule="evenodd"/>
      <path id="Path_149" data-name="Path 149" d="M224.924,32.132c-1.126.805-4.891-3.208-6.145,1.929-.095.388-.162,1.73-1.911.94s-1.554,2-.011,1.624.56,3.1-.114,2.782-7.871-3.92-.743-9.472c5.039-8.581,14.435-1.062,8.923,2.2" transform="translate(-133.529 -16.251)" fill="#626364" fill-rule="evenodd"/>
      <path id="Path_150" data-name="Path 150" d="M340.82,146.524l14.019-.779c2.133-.1,5.353-1.622,6.615-1.207,1.077.354.731,1.25-1.352,1.569-.01.8,3.595-.468,5.234.535.969.592-1.932,3-1.584,3.793.687,1.57-1.164,2.162-2.964,1.794-1.25-.256-3.245.312-6.429-.366L342.985,153.2Z" transform="translate(-213.607 -90.418)" fill="#f4bf2f" fill-rule="evenodd"/>
      <path id="Path_151" data-name="Path 151" d="M225.692,106.332l33.146-1c3.43.038,7.057,10.917,5,12.665-6.446,3.816-28.531,7.052-40.489,8.813-20.092,2.959-28.016-42.925-15.6-43.806,9.858-.7,8.87,23.6,17.939,23.327" transform="translate(-126.605 -51.942)" fill="#a54bff" fill-rule="evenodd"/>
      <path id="Path_152" data-name="Path 152" d="M225.692,106.332l33.146-1c3.43.038,7.057,10.917,5,12.665-6.446,3.816-28.531,7.052-40.489,8.813-20.092,2.959-28.016-42.925-15.6-43.806C217.612,82.306,216.623,106.605,225.692,106.332Z" transform="translate(-126.605 -51.942)" fill="none" stroke="#fff" stroke-linecap="round" stroke-linejoin="round" stroke-width="1.585"/>
      <path id="Path_153" data-name="Path 153" d="M146.312,174.087l-2-4.131,2-4.131,1.859,4.131Z" transform="translate(-90.614 -103.787)" fill="#f1687b" fill-rule="evenodd"/>
      <path id="Path_154" data-name="Path 154" d="M187.391,202.844l-2-4.131,2-4.131,1.859,4.131Z" transform="translate(-116.325 -121.785)" fill="#f1687b" fill-rule="evenodd"/>
      <path id="Path_155" data-name="Path 155" d="M214.954,168.533l-2-4.131,2-4.131,1.859,4.131Z" transform="translate(-133.576 -100.31)" fill="#f4bf2f" fill-rule="evenodd"/>
      <path id="Path_156" data-name="Path 156" d="M209.715,133.376l-2-4.131,2-4.131,1.859,4.131Z" transform="translate(-130.297 -78.306)" fill="#f1687b" fill-rule="evenodd"/>
      <path id="Path_157" data-name="Path 157" d="M256.739,163.046l-2-4.131,2-4.131,1.859,4.131Z" transform="translate(-159.728 -96.876)" fill="#f4bf2f" fill-rule="evenodd"/>
      <path id="Path_158" data-name="Path 158" d="M318.625,130.036l-2-4.131,2-4.131,1.859,4.131Z" transform="translate(-198.461 -76.216)" fill="#f4bf2f" fill-rule="evenodd"/>
      <path id="Path_159" data-name="Path 159" d="M342.825,114.992l-2-4.131,2-4.131,1.859,4.131Z" transform="translate(-213.607 -66.8)" fill="#f4bf2f" fill-rule="evenodd"/>
      <path id="Path_160" data-name="Path 160" d="M318.625,160.947l-2-4.131,2-4.131,1.859,4.131Z" transform="translate(-198.461 -95.563)" fill="#f1687b" fill-rule="evenodd"/>
      <path id="Path_161" data-name="Path 161" d="M292.13,174.087l-2-4.131,2-4.131,1.859,4.131Z" transform="translate(-181.879 -103.787)" fill="#f4bf2f" fill-rule="evenodd"/>
      <path id="Path_162" data-name="Path 162" d="M251.575,130.036l-2-4.131,2-4.131,1.859,4.131Z" transform="translate(-156.496 -76.216)" fill="#f4bf2f" fill-rule="evenodd"/>
      <path id="Path_163" data-name="Path 163" d="M233.227,215.6l-2-4.131,2-4.131,1.859,4.131Z" transform="translate(-145.013 -129.77)" fill="#f4bf2f" fill-rule="evenodd"/>
      <path id="Path_164" data-name="Path 164" d="M159.322,208.749l-2-4.131,2-4.131,1.859,4.131Z" transform="translate(-98.757 -125.481)" fill="#f4bf2f" fill-rule="evenodd"/>
      <path id="Path_165" data-name="Path 165" d="M228.064,99.933l-2-4.131,2-4.131,1.859,4.131Z" transform="translate(-141.781 -57.375)" fill="#f4bf2f" fill-rule="evenodd"/>
      <path id="Path_166" data-name="Path 166" d="M177.064,114.992l-2-4.131,2-4.131,1.859,4.131Z" transform="translate(-109.861 -66.8)" fill="#f4bf2f" fill-rule="evenodd"/>
      <path id="Path_167" data-name="Path 167" d="M198.653,93.446l-2-4.131,2-4.131,1.859,4.131Z" transform="translate(-123.374 -53.315)" fill="#f1687b" fill-rule="evenodd"/>
      <path id="Path_168" data-name="Path 168" d="M177.064,154l-2-4.131,2-4.131,1.859,4.131Z" transform="translate(-109.861 -91.216)" fill="#f4bf2f" fill-rule="evenodd"/>
      <path id="Path_169" data-name="Path 169" d="M270.7,193.368,251.6,196.031a12.481,12.481,0,0,0,3.964,2.7Z" transform="translate(-157.764 -121.025)" fill="#626364" fill-rule="evenodd"/>
      <path id="Path_170" data-name="Path 170" d="M222.321,174.3s-7.2-3.356-11.494-14.033" transform="translate(-132.248 -100.31)" fill="none" stroke="#626364" stroke-linecap="round" stroke-linejoin="round" stroke-width="1.585"/>
      <path id="Path_171" data-name="Path 171" d="M240.09,107.267l3.35,8.793s1.854,5.6,6.211,5.466l7.337-.2" transform="translate(-150.563 -67.136)" fill="none" stroke="#626364" stroke-linecap="round" stroke-linejoin="round" stroke-width="1.585"/>
      <path id="Path_172" data-name="Path 172" d="M249.864,107.267s.206,5.53-.822,8.793" transform="translate(-156.166 -67.136)" fill="none" stroke="#626364" stroke-linecap="round" stroke-linejoin="round" stroke-width="1.585"/>
      <path id="Path_173" data-name="Path 173" d="M141.817,225.97s-9.19,10.984-5.11,19.408,7.611,13.479,3.178,20.5-8.662,10.671-3.178,19.656,5.853,10.952,1.316,17.972-11.737,13.479-7.014,20.5,6.085,15.173,3.042,18.989" transform="translate(-81.326 -141.43)" fill="none" stroke="#fff" stroke-linecap="round" stroke-linejoin="round" stroke-width="1.585"/>
      <path id="Path_174" data-name="Path 174" d="M133.885,538.416s4.877-.022,8.835-.208l-8.928,2.342Z" transform="translate(-84.033 -336.852)" fill="#626364" fill-rule="evenodd"/>
      <path id="Path_175" data-name="Path 175" d="M133.885,538.416s4.877-.022,8.835-.208l-8.928,2.342Z" transform="translate(-84.033 -336.852)" fill="none" stroke="#000" stroke-miterlimit="22.926" stroke-width="0.449"/>
      <path id="Path_176" data-name="Path 176" d="M211.07,235.676s-7.168,5.949-2.7,10.722,10.79,7.3,7.63,14.883-6.368,18.814.852,27.8,1.2,14.6,0,21.341,7.688,11.232,8.624,15.912-7.488,7.114-4.118,11.607,8.521,6.628,7.3,11.476" transform="translate(-129.793 -147.504)" fill="none" stroke="#fff" stroke-linecap="round" stroke-linejoin="round" stroke-width="1.585"/>
      <path id="Path_177" data-name="Path 177" d="M189,274.3l2.746-9.8,2.557,38.6Z" transform="translate(-118.588 -165.546)" fill="#626364" fill-rule="evenodd"/>
      <path id="Path_178" data-name="Path 178" d="M316.187,137.448l-20.9.763,23.474-3.965Z" transform="translate(-185.111 -84.022)" fill="#626364" fill-rule="evenodd"/>
      <path id="Path_179" data-name="Path 179" d="M249.869,540.748l8.814-1.434-.089-.383a60.373,60.373,0,0,1-8.846.291Z" transform="translate(-156.608 -337.305)" fill="#626364" fill-rule="evenodd"/>
      <line id="Line_64" data-name="Line 64" x2="21.676" transform="translate(47.508 211.893)" fill="none" stroke="#626364" stroke-linecap="round" stroke-linejoin="round" stroke-width="1.585"/>
      <line id="Line_65" data-name="Line 65" x2="28.144" y2="0.739" transform="translate(91.184 211.155)" fill="none" stroke="#626364" stroke-linecap="round" stroke-linejoin="round" stroke-width="1.585"/>
      <path id="Path_180" data-name="Path 180" d="M105.492,417.43v45.045l-3.543-.413Z" transform="translate(-64.104 -261.26)" fill="#626364" fill-rule="evenodd"/>
      <path id="Path_181" data-name="Path 181" d="M222.746,72.828a2.817,2.817,0,0,0,2.653,3.188" transform="translate(-139.697 -45.582)" fill="none" stroke="#626364" stroke-linecap="round" stroke-linejoin="round" stroke-width="1.585"/>
      <path id="Path_182" data-name="Path 182" d="M237.358,51.7h-6.343a1.15,1.15,0,0,1-1.15-1.15V47.986a1.15,1.15,0,0,1,1.15-1.15h6.343a1.15,1.15,0,0,1,1.15,1.15v2.567a1.15,1.15,0,0,1-1.15,1.15" transform="translate(-144.163 -29.314)" fill="#626364" fill-rule="evenodd"/>
      <path id="Path_183" data-name="Path 183" d="M241.444,51.7H235.1a1.15,1.15,0,0,1-1.15-1.15V47.986a1.15,1.15,0,0,1,1.15-1.15h6.342a1.15,1.15,0,0,1,1.15,1.15v2.567a1.15,1.15,0,0,1-1.15,1.15" transform="translate(-146.721 -29.314)" fill="#f4f4f4" fill-rule="evenodd"/>
      <path id="Path_184" data-name="Path 184" d="M242.006,51.974h-5.6a1.15,1.15,0,0,1-1.15-1.15V48.966a1.15,1.15,0,0,1,1.15-1.15h5.6a1.15,1.15,0,0,1,1.15,1.15v1.858a1.15,1.15,0,0,1-1.15,1.15" transform="translate(-147.535 -29.927)" fill="#f1687b" fill-rule="evenodd"/>
      <path id="Path_185" data-name="Path 185" d="M217.694,51.239h-.716a2.94,2.94,0,0,1-2.94-2.94v-.462a2.94,2.94,0,0,1,2.94-2.94h.716a.931.931,0,0,1,.93.931v4.48a.93.93,0,0,1-.93.93" transform="translate(-134.258 -28.1)" fill="#f1687b" fill-rule="evenodd"/>
      <rect id="Rectangle_190" data-name="Rectangle 190" width="1.335" height="1.654" transform="translate(84.367 19.27)" fill="#f4f4f4"/>
      <path id="Path_186" data-name="Path 186" d="M218.344,51.294c-3.25-3.651,0-6.308,0-6.308" transform="translate(-136.049 -28.156)" fill="none" stroke="#fff" stroke-linecap="round" stroke-linejoin="round" stroke-width="0.792"/>
      <line id="Line_66" data-name="Line 66" y2="1.654" transform="translate(84.367 19.27)" fill="none" stroke="#626364" stroke-linecap="round" stroke-linejoin="round" stroke-width="1.585"/>
      <path id="Path_187" data-name="Path 187" d="M228.555,61.531s.41,2.086,2.789,1.14Z" transform="translate(-143.344 -38.511)" fill="#626364" fill-rule="evenodd"/>
      <path id="Path_188" data-name="Path 188" d="M161.172,15.159c-.36-.36-3.293-1.483-5.414-3.98S151,8.972,148.419,9.327s-3.831-4.138-6.2-5.136-5.928-1.685-8.424,2.371" transform="translate(-84.034 -2.144)" fill="none" stroke="#fff" stroke-linecap="round" stroke-linejoin="round" stroke-width="0.792"/>
      <path id="Path_189" data-name="Path 189" d="M128.867,23.081c3.309,11.321,16.881,1.079,22.09,3.842" transform="translate(-80.951 -14.446)" fill="none" stroke="#626364" stroke-linecap="round" stroke-linejoin="round" stroke-width="1.585"/>
      <path id="Path_190" data-name="Path 190" d="M220.487,32.9s.557-3.123,5.518-7.05c-.516-.524-3.527.169-4.947,1.418,0,0-2.417,1.394-2.945,5.962Z" transform="translate(-136.808 -16.067)" fill="#a54bff" fill-rule="evenodd"/>
      <line id="Line_67" data-name="Line 67" y1="0.33" x2="2.374" transform="translate(81.305 16.83)" fill="none" stroke="#626364" stroke-linecap="round" stroke-linejoin="round" stroke-width="1.585"/>
      <rect id="Rectangle_191" data-name="Rectangle 191" width="4.899" height="12.468" transform="translate(131.139 28.176) rotate(-53.284)" fill="#626364"/>
      <path id="Path_191" data-name="Path 191" d="M358.975,71.888a.827.827,0,1,1-.827-.827.827.827,0,0,1,.827.827" transform="translate(-223.934 -44.476)" fill="#f4f4f4" fill-rule="evenodd"/>
      <path id="Path_192" data-name="Path 192" d="M365.206,76.536a.827.827,0,1,1-.827-.827.827.827,0,0,1,.827.827" transform="translate(-227.834 -47.385)" fill="#f4f4f4" fill-rule="evenodd"/>
      <path id="Path_193" data-name="Path 193" d="M358.349,89.706s4.4,2.152,2.713,5.334S353.2,89.3,344.12,94.2" transform="translate(-215.673 -56.145)" fill="none" stroke="#626364" stroke-linecap="round" stroke-linejoin="round" stroke-width="1.585"/>
      <path id="Path_194" data-name="Path 194" d="M369.039,159.28s.954,6.34-2.374,4.561-3.14-12.981-9.786-10.515" transform="translate(-223.658 -95.742)" fill="none" stroke="#626364" stroke-linecap="round" stroke-linejoin="round" stroke-width="1.585"/>
      <path id="Path_195" data-name="Path 195" d="M240.76,51.974h-.749l2.767-4.158h.749Z" transform="translate(-150.514 -29.927)" fill="#f4f4f4" fill-rule="evenodd"/>
      <path id="Path_196" data-name="Path 196" d="M242.971,51.974H242.6l2.767-4.158h.374Z" transform="translate(-152.132 -29.927)" fill="#f4f4f4" fill-rule="evenodd"/>
      <line id="Line_68" data-name="Line 68" y2="2.009" transform="translate(95.621 18.887)" fill="none" stroke="#000" stroke-linecap="round" stroke-linejoin="round" stroke-width="0.396"/>
      <path id="Path_197" data-name="Path 197" d="M165.679,543.13s.554-9.825,4.068-7.594S165.679,543.13,165.679,543.13Z" transform="translate(-103.991 -334.973)" fill="none" stroke="#626364" stroke-linecap="round" stroke-linejoin="round" stroke-width="1.585"/>
      <path id="Path_198" data-name="Path 198" d="M152.957,548.975s-9.838.227-7.893-3.453S152.957,548.975,152.957,548.975Z" transform="translate(-90.929 -340.77)" fill="none" stroke="#626364" stroke-linecap="round" stroke-linejoin="round" stroke-width="1.585"/>
      <path id="Path_199" data-name="Path 199" d="M284.614,542.407s.554-9.825,4.068-7.594S284.614,542.407,284.614,542.407Z" transform="translate(-178.43 -334.521)" fill="none" stroke="#626364" stroke-linecap="round" stroke-linejoin="round" stroke-width="1.585"/>
      <path id="Path_200" data-name="Path 200" d="M271.893,548.253s-9.838.227-7.893-3.453S271.893,548.253,271.893,548.253Z" transform="translate(-165.368 -340.318)" fill="none" stroke="#626364" stroke-linecap="round" stroke-linejoin="round" stroke-width="1.585"/>
      <path id="Path_201" data-name="Path 201" d="M121.078,282.339s10.888,6.892,6.77,14.961-9.453,8-9.453,8" transform="translate(-74.397 -176.71)" fill="none" stroke="#fff" stroke-linecap="round" stroke-linejoin="round" stroke-width="1.585"/>
      <ellipse id="Ellipse_40" data-name="Ellipse 40" cx="3.16" cy="3.16" rx="3.16" ry="3.16" transform="translate(57.028 132.532)" fill="none" stroke="#fff" stroke-linecap="round" stroke-linejoin="round" stroke-width="1.585"/>
      <ellipse id="Ellipse_41" data-name="Ellipse 41" cx="3.16" cy="3.16" rx="3.16" ry="3.16" transform="translate(92.844 161.23)" fill="none" stroke="#fff" stroke-linecap="round" stroke-linejoin="round" stroke-width="1.585"/>
      <path id="Path_202" data-name="Path 202" d="M163.771,417.43s-14.987,12.585-11.45,21.648,9.657,11.871,9.657,11.871" transform="translate(-95.292 -261.26)" fill="none" stroke="#fff" stroke-linecap="round" stroke-linejoin="round" stroke-width="1.585"/>
      <path id="Path_203" data-name="Path 203" d="M242.7,303.867s-9.4,9.777-2.847,19.865,8.842,9.339,8.842,9.339" transform="translate(-148.963 -190.184)" fill="none" stroke="#fff" stroke-linecap="round" stroke-linejoin="round" stroke-width="1.585"/>
    </g>
  </g>
</svg>
