<svg id="Group_2" data-name="Group 2" xmlns="http://www.w3.org/2000/svg" xmlns:xlink="http://www.w3.org/1999/xlink" width="115.873" height="38.086" viewBox="0 0 115.873 38.086">
  <defs>
    <clipPath id="clip-path">
      <rect id="Rectangle_1" data-name="Rectangle 1" width="115.873" height="38.086" fill="none"/>
    </clipPath>
  </defs>
  <g id="Group_1" data-name="Group 1" clip-path="url(#clip-path)">
    <path id="Path_1" data-name="Path 1" d="M161.088,40.178a7.3,7.3,0,0,1,1.886,5.459v9.446H158.19v-8.71a4.3,4.3,0,0,0-.859-2.929,3.15,3.15,0,0,0-2.484-.966,3.808,3.808,0,0,0-2.883,1.119,4.635,4.635,0,0,0-1.073,3.328v8.158h-4.785V32.326h4.785V40.3a6.364,6.364,0,0,1,2.3-1.457,8.318,8.318,0,0,1,2.944-.506,6.791,6.791,0,0,1,4.953,1.84" transform="translate(-108.9 -24.094)" fill="#a54bff"/>
    <path id="Path_2" data-name="Path 2" d="M227.87,31.477a2.6,2.6,0,0,1,0-3.8,3.036,3.036,0,0,1,2.147-.767,3.111,3.111,0,0,1,2.147.736,2.36,2.36,0,0,1,.828,1.84,2.6,2.6,0,0,1-.828,1.978,3,3,0,0,1-2.147.782,3.033,3.033,0,0,1-2.147-.767m-.245,3.067h4.785v16.5h-4.785Z" transform="translate(-169.226 -20.055)" fill="#a54bff"/>
    <path id="Path_3" data-name="Path 3" d="M267.146,53.842a5.541,5.541,0,0,1-1.564-4.217v-17.3h4.784V49.349a2.251,2.251,0,0,0,.537,1.61,1.988,1.988,0,0,0,1.518.567,3.217,3.217,0,0,0,.751-.092,2.328,2.328,0,0,0,.6-.215l.215,3.711a7.816,7.816,0,0,1-2.484.4,6.064,6.064,0,0,1-4.355-1.487" transform="translate(-197.952 -24.095)" fill="#a54bff"/>
    <path id="Path_4" data-name="Path 4" d="M306.4,31.477a2.6,2.6,0,0,1,0-3.8,3.036,3.036,0,0,1,2.147-.767,3.112,3.112,0,0,1,2.147.736,2.36,2.36,0,0,1,.828,1.84,2.6,2.6,0,0,1-.828,1.978,3,3,0,0,1-2.147.782,3.034,3.034,0,0,1-2.147-.767m-.245,3.067h4.785v16.5H306.15Z" transform="translate(-227.755 -20.055)" fill="#a54bff"/>
    <path id="Path_5" data-name="Path 5" d="M353.775,61.917a4.911,4.911,0,0,1-1.733.782,8.654,8.654,0,0,1-2.131.261,6.412,6.412,0,0,1-4.57-1.5,5.78,5.78,0,0,1-1.595-4.416V42.564h4.785v4.018h4.079v3.68h-4.079v6.717a2.292,2.292,0,0,0,.521,1.61,1.937,1.937,0,0,0,1.5.567,3.291,3.291,0,0,0,1.963-.613Z" transform="translate(-256.211 -31.725)" fill="#a54bff"/>
    <path id="Path_6" data-name="Path 6" d="M398.685,68.707a5.538,5.538,0,0,0,1.856-1.212l2.545,2.76q-2.331,2.668-6.809,2.668a10.77,10.77,0,0,1-4.938-1.089,7.981,7.981,0,0,1-3.312-3.021,8.32,8.32,0,0,1-1.166-4.386,8.432,8.432,0,0,1,1.15-4.37,8.057,8.057,0,0,1,3.159-3.036,9.341,9.341,0,0,1,4.524-1.089,9.228,9.228,0,0,1,4.294,1,7.672,7.672,0,0,1,3.082,2.883,8.4,8.4,0,0,1,1.15,4.462l-12.207,2.362a3.66,3.66,0,0,0,1.641,1.84,5.64,5.64,0,0,0,2.745.613,6.333,6.333,0,0,0,2.285-.383m-5.935-7.99a4.63,4.63,0,0,0-1.2,3.22l8.035-1.564a3.609,3.609,0,0,0-1.38-2.055,4.13,4.13,0,0,0-2.515-.767,3.928,3.928,0,0,0-2.944,1.166" transform="translate(-288.348 -41.69)" fill="#a54bff"/>
    <path id="Path_7" data-name="Path 7" d="M6.49,34.61a3.377,3.377,0,0,1-3.245,3.477A3.377,3.377,0,0,1,0,34.61V3.477A3.377,3.377,0,0,1,3.245,0,3.377,3.377,0,0,1,6.49,3.477Z" fill="#a54bff"/>
    <path id="Path_8" data-name="Path 8" d="M90.229,62.422a3.253,3.253,0,1,1-6.49,0V60.038a3.253,3.253,0,1,1,6.49,0Z" transform="translate(-62.415 -42.158)" fill="#ff6dce"/>
    <path id="Path_9" data-name="Path 9" d="M48.359,73.128a3.253,3.253,0,1,1-6.49,0V64.666a3.253,3.253,0,1,1,6.49,0Z" transform="translate(-31.207 -45.607)" fill="#ff6dce"/>
    <path id="Path_10" data-name="Path 10" d="M45.081,34.593h0a3.256,3.256,0,1,1,3.256-3.256,3.256,3.256,0,0,1-3.256,3.256" transform="translate(-31.174 -20.93)" fill="#ff6dce"/>
  </g>
</svg>
